<?xml version="1.0" encoding="utf-8"?>
<!-- Generator: Adobe Illustrator 20.0.0, SVG Export Plug-In . SVG Version: 6.00 Build 0)  -->
<svg version="1.1" id="Layer_1" xmlns="http://www.w3.org/2000/svg" xmlns:xlink="http://www.w3.org/1999/xlink" x="0px" y="0px"
	 viewBox="0 0 63.2 49.4" style="enable-background:new 0 0 63.2 49.4;" xml:space="preserve">
<style type="text/css">
	.st0{fill:#FFF8F0;}
</style>
<path class="st0" d="M41.8,28.6c0,5.6-4.6,10.2-10.2,10.2s-10.2-4.6-10.2-10.2s4.6-10.2,10.2-10.2S41.8,23,41.8,28.6"/>
<path class="st0" d="M59.7,7.9h-9.9l-2-5.6C47.3,0.9,46,0,44.6,0h-26c-1.4,0-2.7,0.9-3.2,2.2l-2,5.6H3.4C1.5,7.9,0,9.4,0,11.3V46
	c0,1.9,1.5,3.4,3.4,3.4h56.3c1.9,0,3.4-1.5,3.4-3.4V11.3C63.2,9.4,61.6,7.9,59.7,7.9 M7.5,18.9c-1.7,0-3.1-1.4-3.1-3.1
	s1.4-3.1,3.1-3.1c1.7,0,3.1,1.4,3.1,3.1S9.2,18.9,7.5,18.9 M31.6,42.5c-7.6,0-13.8-6.2-13.8-13.8c0-7.6,6.2-13.8,13.8-13.8
	c7.6,0,13.8,6.2,13.8,13.8C45.4,36.3,39.2,42.5,31.6,42.5"/>
</svg>
