<?xml version="1.0" encoding="utf-8"?>
<!-- Generator: Adobe Illustrator 21.0.2, SVG Export Plug-In . SVG Version: 6.00 Build 0)  -->
<svg version="1.1" id="Layer_1" xmlns="http://www.w3.org/2000/svg" xmlns:xlink="http://www.w3.org/1999/xlink" x="0px" y="0px"
	 viewBox="0 0 555.7 539.4" style="enable-background:new 0 0 555.7 539.4;" xml:space="preserve">
<style type="text/css">
	.st0{fill:#FEF8F0;}
</style>
<path class="st0" d="M465.9,81.9C417.7,33.8,351.2,4,277.9,4C204.5,4,138,33.8,89.8,81.9c-48.2,48.1-78,114.5-78,187.8
	s29.8,139.7,78,187.8c48.2,48.1,114.7,77.9,188.1,77.9c73.4,0,139.9-29.8,188.1-77.9c48.2-48.1,78-114.5,78-187.8
	S514.1,130,465.9,81.9z M454.7,128c30.7,38,49.3,86,50.2,138.3c-10.2-2.1-53.4-10.1-105.1-10.1c-16.7,0-34.2,0.8-51.8,3
	c-1.5-3.6-3-7.2-4.5-10.8c-4.6-10.7-9.5-21.3-14.6-31.8C408.4,183.7,446.8,138.2,454.7,128z M277.9,43.3
	c57.3,0,109.6,21.3,149.6,56.3c-6.3,8.6-40.7,51.5-117.3,80.5c-35.4-64.9-74.3-118.5-83.5-131C243.1,45.3,260.2,43.3,277.9,43.3z
	 M180.3,65.3c7.8,10.8,46.7,65,83.1,129.4C165.8,220.3,79.1,222,58.1,222c-0.9,0-1.6,0-2.2,0C71,152.7,117.8,95.1,180.3,65.3z
	 M50.8,270c0-1.9,0-3.7,0.1-5.6c1.4,0,3.4,0,6,0c28.2,0,126-2.3,226.8-32.3c6.1,12,12,24.1,17.4,36.3c-2.5,0.7-5.1,1.5-7.6,2.3
	c-113.5,36.7-175.9,133.7-185.5,149.5C72.4,380.3,50.8,327.6,50.8,270z M277.9,496.8c-52.1,0-100.1-17.6-138.5-47.2
	c6.5-12.7,53.5-97.5,177.9-140.8c0.1,0,0.2-0.1,0.3-0.1c31.2,81.2,44.4,149.3,48,170.5C338.6,490.5,308.9,496.8,277.9,496.8z
	 M406.5,456.8c-3-17.5-15.3-81.3-43.5-159.2c15.8-2.4,31.3-3.4,45.7-3.4c47.4,0,84.6,10.4,93.2,13
	C491.6,369.1,456.2,422.6,406.5,456.8z"/>
</svg>
