<?xml version="1.0" encoding="utf-8"?>
<!-- Generator: Adobe Illustrator 21.0.2, SVG Export Plug-In . SVG Version: 6.00 Build 0)  -->
<svg version="1.0" id="Layer_1" xmlns="http://www.w3.org/2000/svg" xmlns:xlink="http://www.w3.org/1999/xlink" x="0px" y="0px"
	 viewBox="0 0 555.7 539.4" style="enable-background:new 0 0 555.7 539.4;" xml:space="preserve">
<style type="text/css">
	.st0{fill:#FEF8F0;}
</style>
<path id="White_2_" class="st0" d="M505,14.3H50.7c-15.6,0-28.2,12.6-28.2,28.2v454.3c0,15.6,12.6,28.2,28.2,28.2h244.6V327.3h-66.6
	v-77.1h66.6v-56.8c0-66,40.3-101.9,99.1-101.9c28.2,0,52.4,2.1,59.5,3v68.9l-40.8,0c-32,0-38.2,15.2-38.2,37.5v49.2h76.3l-9.9,77.1
	h-66.4V525H505c15.6,0,28.2-12.6,28.2-28.2V42.5C533.2,26.9,520.6,14.3,505,14.3z"/>
</svg>
