<?xml version="1.0" encoding="utf-8"?>
<!-- Generator: Adobe Illustrator 21.0.2, SVG Export Plug-In . SVG Version: 6.00 Build 0)  -->
<svg version="1.1" id="Layer_1" xmlns="http://www.w3.org/2000/svg" xmlns:xlink="http://www.w3.org/1999/xlink" x="0px" y="0px"
	 viewBox="0 0 555.7 539.4" style="enable-background:new 0 0 555.7 539.4;" xml:space="preserve">
<style type="text/css">
	.st0{fill-rule:evenodd;clip-rule:evenodd;fill:#FEF8F0;}
	.st1{fill:#FEF8F0;}
</style>
<g>
	<path class="st0" d="M277.9,44.6c-127.4,0-230.8,103.3-230.8,230.8c0,102,66.1,188.5,157.8,219c11.5,2.1,15.8-5,15.8-11.1
		c0-5.5-0.2-23.7-0.3-43c-64.2,14-77.7-27.2-77.7-27.2c-10.5-26.7-25.6-33.8-25.6-33.8c-20.9-14.3,1.6-14,1.6-14
		c23.2,1.6,35.4,23.8,35.4,23.8c20.6,35.3,54,25.1,67.2,19.2c2.1-14.9,8-25.1,14.7-30.9c-51.3-5.8-105.1-25.6-105.1-114
		c0-25.2,9-45.8,23.8-61.9c-2.4-5.8-10.3-29.3,2.2-61.1c0,0,19.4-6.2,63.5,23.7c18.4-5.1,38.2-7.7,57.8-7.8
		c19.6,0.1,39.4,2.7,57.8,7.8c44-29.9,63.4-23.7,63.4-23.7c12.6,31.8,4.7,55.3,2.3,61.1c14.8,16.2,23.7,36.7,23.7,61.9
		c0,88.6-54,108.2-105.4,113.9c8.3,7.2,15.7,21.2,15.7,42.7c0,30.9-0.3,55.7-0.3,63.3c0,6.1,4.2,13.3,15.8,11.1
		c91.6-30.5,157.7-117,157.7-218.9C508.6,147.9,405.3,44.6,277.9,44.6z"/>
	<path class="st1" d="M134.5,376c-0.5,1.1-2.3,1.5-4,0.7c-1.7-0.8-2.6-2.3-2.1-3.5c0.5-1.2,2.3-1.5,4-0.7
		C134.1,373.2,135.1,374.8,134.5,376L134.5,376z M131.6,373.9"/>
	<path class="st1" d="M143.8,386.4c-1.1,1-3.3,0.5-4.7-1.1c-1.5-1.6-1.8-3.8-0.7-4.8c1.1-1,3.2-0.5,4.7,1.1
		C144.7,383.2,145,385.4,143.8,386.4L143.8,386.4z M141.6,384"/>
	<path class="st1" d="M152.9,399.7c-1.4,1-3.7,0.1-5.2-2c-1.4-2.1-1.4-4.5,0-5.5c1.4-1,3.7-0.1,5.2,1.9
		C154.4,396.2,154.4,398.7,152.9,399.7L152.9,399.7z M152.9,399.7"/>
	<path class="st1" d="M165.4,412.5c-1.3,1.4-4,1-5.9-0.9c-2-1.9-2.6-4.5-1.3-5.9c1.3-1.4,4-1,6,0.9
		C166.1,408.5,166.7,411.1,165.4,412.5L165.4,412.5z M165.4,412.5"/>
	<path class="st1" d="M182.6,420c-0.6,1.8-3.2,2.6-5.8,1.9c-2.6-0.8-4.3-2.9-3.8-4.7c0.5-1.8,3.1-2.7,5.8-1.9
		C181.4,416,183.1,418.1,182.6,420L182.6,420z M182.6,420"/>
	<path class="st1" d="M201.5,421.4c0.1,1.9-2.2,3.5-4.9,3.5c-2.8,0.1-5-1.5-5-3.4c0-1.9,2.2-3.5,4.9-3.5
		C199.2,417.9,201.5,419.5,201.5,421.4L201.5,421.4z M201.5,421.4"/>
	<path class="st1" d="M219.1,418.4c0.3,1.9-1.6,3.8-4.3,4.3c-2.7,0.5-5.2-0.7-5.5-2.5c-0.3-1.9,1.6-3.8,4.3-4.3
		C216.3,415.4,218.7,416.5,219.1,418.4L219.1,418.4z M219.1,418.4"/>
</g>
</svg>
