<?xml version="1.0" encoding="utf-8"?>
<!-- Generator: Adobe Illustrator 21.0.2, SVG Export Plug-In . SVG Version: 6.00 Build 0)  -->
<svg version="1.1" id="Layer_1" xmlns="http://www.w3.org/2000/svg" xmlns:xlink="http://www.w3.org/1999/xlink" x="0px" y="0px"
	 viewBox="0 0 555.7 539.4" style="enable-background:new 0 0 555.7 539.4;" xml:space="preserve">
<style type="text/css">
	.st0{fill:#FEF8F0;}
</style>
<g>
	<path class="st0" d="M382.5,530.3H173.2c-82.1,0-148.9-66.8-148.9-148.9V158C24.3,75.9,91.1,9.1,173.2,9.1h209.4
		c82.1,0,148.9,66.8,148.9,148.9v223.4C531.4,463.5,464.6,530.3,382.5,530.3z M173.2,47.3c-61,0-110.7,49.7-110.7,110.7v223.4
		c0,61,49.7,110.7,110.7,110.7h209.4c61,0,110.7-49.7,110.7-110.7V158c0-61-49.7-110.7-110.7-110.7H173.2z"/>
	<path class="st0" d="M277.8,407.4c-76.4,0-138.5-62.1-138.5-138.5c0-37.6,15.5-74.3,42.5-100.5c26.3-25.5,60.6-39,96.7-38
		c43.1,1.3,78.9,15.8,103.5,42c23.3,24.9,35.2,58.4,34.3,96.9l0,0c-0.8,36.9-15.4,71.5-41,97.3C349.3,393,314.7,407.4,277.8,407.4z
		 M274.7,177.1c-22.4,0-43.8,8.8-60.3,24.9c-18,17.5-28.3,41.9-28.3,67c0,50.6,41.2,91.8,91.8,91.8c50.4,0,90.7-40.6,91.8-92.3
		c0.6-26.1-6.9-48.2-21.7-64c-15.9-17-40.4-26.4-70.8-27.3C276.3,177.1,275.5,177.1,274.7,177.1z"/>
	<circle class="st0" cx="419.7" cy="126.6" r="32.3"/>
</g>
</svg>
