<?xml version="1.0" encoding="utf-8"?>
<!-- Generator: Adobe Illustrator 21.0.2, SVG Export Plug-In . SVG Version: 6.00 Build 0)  -->
<svg version="1.1" id="Layer_1" xmlns="http://www.w3.org/2000/svg" xmlns:xlink="http://www.w3.org/1999/xlink" x="0px" y="0px"
	 viewBox="0 0 602.4 242.8" style="enable-background:new 0 0 602.4 242.8;" xml:space="preserve">
<style type="text/css">
	.st0{fill:#FEF8F0;}
</style>
<g>
	<g>
		<path class="st0" d="M140.1,9.6H140c-0.1,0-0.3-0.1-0.5-0.1c-0.1,0-0.1,0-0.2,0c-0.2,0-0.4,0-0.6,0c-0.1,0-0.1,0-0.2,0
			c-0.2,0-0.3,0-0.5,0.1c-0.1,0-0.1,0-0.2,0.1c-0.1,0-0.3,0.1-0.4,0.1c-0.1,0-0.1,0.1-0.2,0.1c-0.2,0.1-0.3,0.2-0.4,0.3
			c0,0-0.1,0-0.1,0.1c-0.2,0.1-0.3,0.3-0.4,0.4c0,0-0.1,0.1-0.1,0.2c-0.1,0.1-0.2,0.2-0.3,0.3c0,0.1-0.1,0.1-0.1,0.2
			c-0.1,0.2-0.2,0.4-0.3,0.6l-12,34.8c-16-4.5-32.9-2.5-47.7,5.8c-12.2,6.9-21.7,17.8-26.9,30.8c-6.6,16.5-5.9,34.5,1.8,50.4
			c6.8,13.9,18.2,24.5,32.4,30.3l-4.9,14.3l-22.2,9c-17.7-11.1-31.5-28-38.8-47.7C9.8,118.8,9.6,96,16.7,75.3
			C30,36.7,66.2,10.9,106.9,10.9c0.2,0,0.4,0,0.5,0c2,0,3.6-1.7,3.5-3.7c-0.1-1.9-1.8-3.3-3.7-3.3c-0.1,0-0.2,0-0.3,0
			C63.2,4,24.4,31.7,10.1,73c-7.7,22.3-7.4,46.7,0.8,68.8c8,21.7,23.3,40.2,43,52.1l0,0L54,194c6.1,3.7,12.7,6.7,19.5,9.1
			c0.4,0.1,0.8,0.2,1.1,0.2c1.4,0,2.8-0.9,3.3-2.3L90,166c5.6,1.6,11.3,2.4,16.9,2.4c9.3,0,18.6-2.1,27.2-6.3c5-2.4,9.6-5.5,13.6-9
			c12.7-11.1,19.4-27.7,16.9-44.3c-1.9-12.7-9.1-27.4-29.8-36.7l-8.1-2.8l-3-1l5-14.5l24.1-7c1.5-0.4,2.7-1.5,3.4-2.9
			c0.6-1.4,0.6-3.1-0.1-4.5l-9.9-19.9c44.3,20,67,71,50.9,117.9c-12.1,35.3-44,60.4-81.2,63.9c-6.4,0.6-11.2,5.9-11.2,12.4v15
			l-47,4.2c-1.6,0.1-2.8,1.5-2.8,3.2c0.1,1.6,1.4,2.9,3,2.9h100.4c1.6,0,3-1.3,3-2.9c0.1-1.6-1.1-3-2.8-3.2l-47-4.2v-15
			c0-2.8,2.1-5.2,4.9-5.4c39.9-3.8,74.1-30.7,87.1-68.6C221.9,86.2,193.5,27.9,140.1,9.6z M85.7,157.2
			c-12.4-5.2-22.4-14.5-28.4-26.7c-6.5-13.2-7.4-28.2-2.6-42.1s14.7-25.2,28-31.6c12.2-6,25.8-7.2,38.8-3.6l-4.5,13
			c-9.5-2.4-19.4-1.4-28.4,2.9c-10,4.9-17.4,13.3-21,23.8c-0.6,1.8,0.3,3.8,2.2,4.4c0.4,0.1,0.8,0.2,1.1,0.2c1.4,0,2.8-0.9,3.3-2.3
			c3-8.7,9.2-15.8,17.5-19.8c7.2-3.5,15.3-4.4,23-2.6L85.7,157.2z M142.6,118.3l-0.1,0.3c-8.7,25.4-28.5,41.1-50,40.1l28.9-83.9l0,0
			C139.3,80.9,148.8,100.4,142.6,118.3z M140,43.2l-8.6,2.5l5.6-16.2l4.8,9.4C142.7,40.6,141.8,42.6,140,43.2z"/>
	</g>
	<g>
		<path class="st0" d="M294.1,13c0.7,0,1.3,0.6,1.3,1.3v6.4c0,0.7-0.6,1.2-1.3,1.2h-12.8v41.3c0,0.7-0.6,1.3-1.3,1.3h-6.6
			c-0.7,0-1.3-0.6-1.3-1.3V21.9h-12.8c-0.7,0-1.3-0.6-1.3-1.2v-6.4c0-0.7,0.6-1.3,1.3-1.3C259.3,13,294.1,13,294.1,13z"/>
		<path class="st0" d="M304.1,14.2c0-0.7,0.6-1.3,1.3-1.3h6.6c0.7,0,1.3,0.6,1.3,1.3v20.1h25.4V14.2c0-0.7,0.6-1.3,1.3-1.3h6.6
			c0.7,0,1.3,0.6,1.3,1.3v49c0,0.7-0.6,1.3-1.3,1.3H340c-0.7,0-1.3-0.6-1.3-1.3V43.1h-25.4v20.1c0,0.7-0.6,1.3-1.3,1.3h-6.6
			c-0.7,0-1.3-0.6-1.3-1.3V14.2z"/>
		<path class="st0" d="M387.9,34.3c0.7,0,1.2,0.6,1.2,1.2v6.3c0,0.7-0.6,1.3-1.2,1.3h-19.3v12.5h24.2c0.7,0,1.3,0.6,1.3,1.3v6.3
			c0,0.7-0.6,1.3-1.3,1.3h-32.1c-0.7,0-1.3-0.6-1.3-1.3v-49c0-0.7,0.6-1.3,1.3-1.3h32.1c0.7,0,1.3,0.6,1.3,1.3v6.3
			c0,0.7-0.6,1.3-1.3,1.3h-24.2v12.5H387.9z"/>
		<path class="st0" d="M268.9,98c0.9,0,1.5,0.4,2,1l25.7,34.9V99.2c0-0.7,0.6-1.3,1.2-1.3h6.6c0.7,0,1.3,0.6,1.3,1.3v49
			c0,0.7-0.6,1.3-1.3,1.3h-6.6c-0.9,0-1.5-0.4-2-1l-25.7-34.8v34.6c0,0.7-0.6,1.3-1.3,1.3h-6.6c-0.7,0-1.3-0.6-1.3-1.3v-49
			c0-0.7,0.6-1.3,1.3-1.3L268.9,98L268.9,98z"/>
		<path class="st0" d="M368.1,123.7c0,17.6-11.2,26.8-26,26.8s-26-9.1-26-26.8s11.2-26.8,26-26.8C356.8,96.9,368.1,106,368.1,123.7z
			 M359,123.7c0-14-9.6-17.9-16.9-17.9c-7.4,0-16.9,3.9-16.9,17.9s9.6,17.9,16.9,17.9C349.4,141.6,359,137.7,359,123.7z"/>
		<path class="st0" d="M409.2,98c0.7,0,1.3,0.6,1.3,1.3v6.4c0,0.7-0.6,1.3-1.3,1.3h-12.8v41.3c0,0.7-0.6,1.3-1.3,1.3h-6.6
			c-0.7,0-1.3-0.6-1.3-1.3V107h-12.8c-0.7,0-1.3-0.6-1.3-1.3v-6.4c0-0.7,0.6-1.3,1.3-1.3C374.4,98,409.2,98,409.2,98z"/>
		<path class="st0" d="M447.6,119.3c0.7,0,1.2,0.6,1.2,1.3v6.3c0,0.7-0.6,1.2-1.2,1.2h-19.3v12.5h24.2c0.7,0,1.3,0.6,1.3,1.3v6.3
			c0,0.7-0.6,1.3-1.3,1.3h-32.1c-0.7,0-1.3-0.6-1.3-1.3v-49c0-0.7,0.6-1.3,1.3-1.3h32.1c0.7,0,1.3,0.6,1.3,1.3v6.3
			c0,0.7-0.6,1.3-1.3,1.3h-24.2v12.5L447.6,119.3L447.6,119.3z"/>
		<path class="st0" d="M483,98c14.2,0,25,8.7,25,25.7c0,17.1-10.8,25.7-25,25.7h-18.4c-0.7,0-1.3-0.6-1.3-1.3v-49
			c0-0.7,0.6-1.3,1.3-1.3H483V98z M483,140.6c11.1,0,15.9-7.1,15.9-16.9c0-9.9-4.8-16.9-15.9-16.9h-10.5v33.8H483z"/>
		<path class="st0" d="M281.3,183c9.9,0,17.6,6,17.6,18s-7.8,18-17.6,18h-11.1v14.2c0,0.7-0.6,1.3-1.3,1.3h-6.6
			c-0.7,0-1.3-0.6-1.3-1.3v-49c0-0.7,0.6-1.3,1.3-1.3h19V183z M270.2,210.2h10.1c6.8,0,9.7-3.9,9.7-9.2s-2.9-9.2-9.7-9.2h-10.1
			V210.2z"/>
		<path class="st0" d="M329.4,183c9.9,0,17.6,6,17.6,18c0,9.3-5,15.2-11.8,17l11.1,15.4c0.3,0.5,0,1-0.5,1h-8.2c-0.9,0-1.5-0.4-2-1
			L325.5,219h-7.2v14.2c0,0.7-0.6,1.3-1.3,1.3h-6.6c-0.7,0-1.3-0.6-1.3-1.3v-49c0-0.7,0.6-1.3,1.3-1.3h19V183z M318.3,210.2h10.1
			c6.8,0,9.7-3.9,9.7-9.2s-2.9-9.2-9.7-9.2h-10.1V210.2z"/>
		<path class="st0" d="M407.2,208.7c0,17.6-11.2,26.8-26,26.8s-26-9.1-26-26.8s11.2-26.8,26-26.8S407.2,191,407.2,208.7z
			 M398.1,208.7c0-14-9.6-17.9-16.9-17.9c-7.4,0-16.9,3.9-16.9,17.9s9.6,17.9,16.9,17.9C388.5,226.6,398.1,222.7,398.1,208.7z"/>
		<path class="st0" d="M422.1,216.3c0.7-0.1,1.3,0.4,1.3,1.1c0.6,7.6,5.1,9.3,9.7,9.3c4.8,0,9.3-3.3,9.3-10v-24.9h-14.3
			c-0.7,0-1.3-0.6-1.3-1.3v-6.3c0-0.7,0.6-1.3,1.3-1.3h22.2c0.7,0,1.3,0.6,1.3,1.3v32.4c0,12.6-7.9,18.8-18.4,18.8
			c-9.8,0-17.7-5.7-18.5-17.1c-0.1-0.8,0.4-1.3,1.2-1.4L422.1,216.3z"/>
		<path class="st0" d="M491.7,204.3c0.7,0,1.2,0.6,1.2,1.3v6.3c0,0.7-0.6,1.2-1.2,1.2h-19.3v12.5h24.2c0.7,0,1.3,0.6,1.3,1.2v6.3
			c0,0.7-0.6,1.3-1.3,1.3h-32.1c-0.7,0-1.3-0.6-1.3-1.3v-49c0-0.7,0.6-1.3,1.3-1.3h32.1c0.7,0,1.3,0.6,1.3,1.3v6.3
			c0,0.7-0.6,1.3-1.3,1.3h-24.2v12.5L491.7,204.3L491.7,204.3z"/>
		<path class="st0" d="M554.1,220.6c0.6,0.3,0.9,1,0.6,1.6c-4.5,8.8-12.8,13.2-23.2,13.2c-14.8,0-26-9.1-26-26.8s11.2-26.8,26-26.8
			c10.4,0,18.6,4.3,23.1,13.2c0.4,0.6,0.1,1.3-0.5,1.7l-5.9,2.9c-0.6,0.4-1.3,0.1-1.6-0.5c-3.2-6.3-9.8-8.4-15.1-8.4
			c-7.4,0-16.9,3.9-16.9,17.9s9.6,17.9,16.9,17.9c5.3,0,11.9-2.1,15.1-8.3c0.3-0.7,1-1,1.6-0.6L554.1,220.6z"/>
		<path class="st0" d="M597.8,183c0.7,0,1.3,0.6,1.3,1.3v6.4c0,0.7-0.6,1.3-1.3,1.3H585v41.3c0,0.7-0.6,1.3-1.2,1.3h-6.6
			c-0.7,0-1.3-0.6-1.3-1.3V192h-12.8c-0.7,0-1.3-0.6-1.3-1.3v-6.4c0-0.7,0.6-1.3,1.3-1.3H597.8z"/>
	</g>
</g>
</svg>
