
<svg version="1.1" id="Layer_1" xmlns="http://www.w3.org/2000/svg" xmlns:xlink="http://www.w3.org/1999/xlink" x="0px" y="0px"
	 viewBox="0 0 72 82.7" style="enable-background:new 0 0 72 82.7;" xml:space="preserve">
<style type="text/css">
	.st0{fill:#FEF8F0;}
</style>
<g>
	<path class="st0" d="M47.7,2C47.7,2,47.7,2,47.7,2c-0.1,0-0.1,0-0.2,0c0,0,0,0-0.1,0c-0.1,0-0.1,0-0.2,0c0,0,0,0-0.1,0
		c-0.1,0-0.1,0-0.2,0c0,0,0,0-0.1,0c0,0-0.1,0-0.1,0.1c0,0,0,0-0.1,0c-0.1,0-0.1,0.1-0.2,0.1c0,0,0,0,0,0c-0.1,0-0.1,0.1-0.2,0.1
		c0,0,0,0,0,0.1c0,0-0.1,0.1-0.1,0.1c0,0,0,0,0,0.1c0,0.1-0.1,0.1-0.1,0.2L41.9,15c-5.6-1.6-11.6-0.9-16.8,2
		c-4.3,2.4-7.6,6.3-9.5,10.9c-2.3,5.8-2.1,12.2,0.6,17.7c2.4,4.9,6.4,8.6,11.4,10.7l-1.7,5l-7.8,3.2c-6.2-3.9-11.1-9.8-13.7-16.8
		c-2.7-7.2-2.8-15.2-0.3-22.6C8.9,11.5,21.7,2.4,36,2.4c0.1,0,0.1,0,0.2,0c0.7,0,1.3-0.6,1.2-1.3c0-0.7-0.6-1.1-1.3-1.2
		c0,0-0.1,0-0.1,0C20.6,0,7,9.7,2,24.3c-2.7,7.8-2.6,16.4,0.3,24.2c2.8,7.6,8.2,14.1,15.2,18.3l0,0c0,0,0,0,0,0
		c2.2,1.3,4.5,2.4,6.9,3.2c0.1,0,0.3,0.1,0.4,0.1c0.5,0,1-0.3,1.2-0.8L30.1,57c2,0.6,4,0.8,6,0.8c3.3,0,6.5-0.7,9.6-2.2
		c1.8-0.9,3.4-1.9,4.8-3.2c4.5-3.9,6.8-9.7,5.9-15.6c-0.7-4.5-3.2-9.7-10.5-12.9L43,23l-1.1-0.4l1.8-5.1l8.5-2.5
		c0.5-0.2,1-0.5,1.2-1c0.2-0.5,0.2-1.1,0-1.6l-3.5-7c15.6,7,23.6,25,17.9,41.5c-4.3,12.4-15.5,21.3-28.6,22.5
		c-2.2,0.2-3.9,2.1-3.9,4.4l0,5.3l-16.5,1.5c-0.6,0.1-1,0.5-1,1.1c0,0.6,0.5,1,1.1,1h35.4c0.6,0,1-0.5,1.1-1c0-0.6-0.4-1.1-1-1.1
		l-16.5-1.5l0-5.3c0-1,0.7-1.8,1.7-1.9C53.4,70.5,65.5,61,70,47.7C76.5,28.9,66.5,8.4,47.7,2z M28.5,53.9c-4.4-1.8-7.9-5.1-10-9.4
		c-2.3-4.7-2.6-9.9-0.9-14.8c1.7-4.9,5.2-8.9,9.8-11.1c4.3-2.1,9.1-2.5,13.7-1.3l-1.6,4.6c-3.3-0.9-6.8-0.5-10,1
		c-3.5,1.7-6.1,4.7-7.4,8.4c-0.2,0.6,0.1,1.3,0.8,1.6c0.1,0,0.3,0.1,0.4,0.1c0.5,0,1-0.3,1.2-0.8c1.1-3.1,3.2-5.5,6.2-7
		c2.5-1.2,5.4-1.6,8.1-0.9L28.5,53.9z M48.6,40.2L48.6,40.2c-3.1,9-10.1,14.5-17.6,14.2l10.2-29.5h0C47.4,27.1,50.8,33.9,48.6,40.2z
		 M47.6,13.8l-3,0.9l2-5.7l1.7,3.3C48.6,12.9,48.3,13.6,47.6,13.8z"/>
</g>
</svg>
