<?xml version="1.0" encoding="utf-8"?>
<!-- Generator: Adobe Illustrator 21.0.2, SVG Export Plug-In . SVG Version: 6.00 Build 0)  -->
<svg version="1.1" id="Layer_1" xmlns="http://www.w3.org/2000/svg" xmlns:xlink="http://www.w3.org/1999/xlink" x="0px" y="0px"
	 viewBox="0 0 544.8 235.8" style="enable-background:new 0 0 544.8 235.8;" xml:space="preserve">
<style type="text/css">
	.st0{fill:#FEF8F0;}
</style>
<path class="st0" d="M6.1,141c-1.1,0-2,0.9-2.2,2.1l-4,30.2l4,29.6c0.1,1.2,1,2.1,2.2,2.1c1.1,0,2-0.9,2.2-2.1l0,0v0c0,0,0,0,0,0
	l4.7-29.6l-4.7-30.2C8.1,141.9,7.2,141,6.1,141z M28.5,124.5c-0.2-1.3-1.1-2.2-2.3-2.2c-1.2,0-2.1,0.9-2.3,2.2
	c0,0-5.3,48.8-5.3,48.8L24,221c0.2,1.3,1.1,2.2,2.3,2.2c1.1,0,2.1-0.9,2.3-2.2l6.1-47.7L28.5,124.5z M112.6,79.6
	c-2.2,0-4,1.8-4.1,4.1l-4.3,89.7l4.3,58c0.1,2.3,1.9,4.1,4.1,4.1c2.2,0,4-1.8,4.1-4.1v0l4.8-58l-4.8-89.7
	C116.5,81.3,114.7,79.6,112.6,79.6z M69,110.7c-1.7,0-3.1,1.3-3.2,3.1l-4.8,59.4l4.8,57.5c0.1,1.8,1.5,3.1,3.2,3.1
	c1.7,0,3-1.3,3.2-3.1l5.4-57.5l-5.4-59.4C72.1,112.1,70.7,110.7,69,110.7z M156.8,235.3c2.7,0,4.9-2.2,5-5l4.2-57l-4.2-119.4
	c-0.1-2.8-2.3-5-5-5c-2.7,0-5,2.2-5,5c0,0-3.7,119.4-3.7,119.4l3.7,57C151.9,233.1,154.1,235.3,156.8,235.3z M247.3,235.6
	c3.7,0,6.8-3.1,6.9-6.9v0v0l2.9-55.4l-2.9-137.9c-0.1-3.8-3.2-6.9-6.9-6.9c-3.7,0-6.8,3.1-6.9,6.9l-2.6,137.9
	c0,0.1,2.6,55.4,2.6,55.4C240.5,232.5,243.6,235.6,247.3,235.6z M201.7,235.4c3.3,0,5.9-2.6,6-5.9v0l3.5-56.1l-3.5-120.3
	c-0.1-3.3-2.7-5.9-6-5.9c-3.3,0-5.9,2.6-6,5.9l-3.1,120.3l3.2,56.1C195.8,232.8,198.5,235.4,201.7,235.4z M90.7,234.9
	c1.9,0,3.5-1.5,3.6-3.6l5.1-58l-5.1-55.2c-0.1-2-1.7-3.6-3.6-3.6c-2,0-3.5,1.5-3.6,3.6l-4.5,55.1l4.5,58
	C87.2,233.3,88.8,234.9,90.7,234.9z M47.5,231.7c1.4,0,2.6-1.1,2.7-2.7l5.8-55.7l-5.8-57.8c-0.2-1.5-1.3-2.7-2.7-2.7
	c-1.4,0-2.6,1.1-2.7,2.7c0,0-5.1,57.8-5.1,57.8l5.1,55.7C45,230.6,46.1,231.7,47.5,231.7z M224.4,51.1c-3.5,0-6.4,2.8-6.4,6.4
	l-2.9,115.9l2.9,55.8c0.1,3.5,2.9,6.4,6.4,6.4c3.5,0,6.3-2.8,6.4-6.4v0l3.2-55.8l-3.2-115.9C230.8,53.9,228,51.1,224.4,51.1z
	 M134.6,235.5c2.4,0,4.5-2,4.6-4.5l4.5-57.6l-4.5-110.2c-0.1-2.5-2.1-4.5-4.6-4.5c-2.5,0-4.5,2-4.6,4.5c0,0-4,110.2-4,110.2l4,57.6
	C130.1,233.5,132.1,235.5,134.6,235.5z M184.7,230L184.7,230l3.9-56.7l-3.9-123.4c-0.1-3.1-2.5-5.5-5.5-5.5c-3,0-5.4,2.4-5.5,5.5
	l-3.4,123.4l3.4,56.7c0.1,3,2.5,5.4,5.5,5.4C182.2,235.4,184.6,233,184.7,230L184.7,230z M478.1,102.2c-9.1,0-17.9,1.9-25.8,5.2
	C446.9,47.2,396.5,0,334.9,0c-15.1,0-29.7,3-42.7,8c-5,1.9-6.4,4-6.4,7.9v211.9c0.1,4.1,3.2,7.5,7.2,7.9c0.2,0,183.9,0.1,185.1,0.1
	c36.9,0,66.8-29.9,66.8-66.8S515,102.2,478.1,102.2z M270.1,15.6c-4,0-7.3,3.3-7.4,7.3l-3,150.4l3,54.6c0.1,4,3.3,7.3,7.4,7.3
	c4,0,7.3-3.3,7.4-7.3v0.1l3.3-54.6L277.5,23C277.4,18.9,274.1,15.6,270.1,15.6z"/>
</svg>
