<?xml version="1.0" encoding="utf-8"?>
<!-- Generator: Adobe Illustrator 21.0.2, SVG Export Plug-In . SVG Version: 6.00 Build 0)  -->
<svg version="1.0" id="Layer_1" xmlns="http://www.w3.org/2000/svg" xmlns:xlink="http://www.w3.org/1999/xlink" x="0px" y="0px"
	 viewBox="0 0 555.7 539.4" style="enable-background:new 0 0 555.7 539.4;" xml:space="preserve">
<style type="text/css">
	.st0{fill:#FEF8F0;}
</style>
<path class="st0" d="M178.4,488.1c202.6,0,313.4-167.8,313.4-313.4c0-4.8-0.1-9.5-0.3-14.2c21.5-15.5,40.2-34.9,54.9-57
	c-19.7,8.8-41,14.7-63.2,17.3c22.7-13.6,40.2-35.2,48.4-60.9c-21.3,12.6-44.8,21.8-69.9,26.7c-20.1-21.4-48.7-34.8-80.4-34.8
	c-60.8,0-110.2,49.3-110.2,110.1c0,8.6,1,17,2.9,25.1C182.4,182.5,101.3,138.7,47,72C37.5,88.3,32,107.2,32,127.4
	c0,38.2,19.4,71.9,49,91.7c-18.1-0.6-35-5.5-49.9-13.8c0,0.5,0,0.9,0,1.4c0,53.3,38,97.9,88.4,108c-9.2,2.5-19,3.9-29,3.9
	c-7.1,0-14-0.7-20.7-2c14,43.8,54.7,75.6,102.9,76.5c-37.7,29.5-85.2,47.1-136.8,47.1c-8.9,0-17.7-0.5-26.3-1.5
	C58.3,469.9,116.2,488.1,178.4,488.1"/>
</svg>
