<?xml version="1.0" encoding="utf-8"?>
<!-- Generator: Adobe Illustrator 21.0.2, SVG Export Plug-In . SVG Version: 6.00 Build 0)  -->
<svg version="1.1" id="Layer_1" xmlns="http://www.w3.org/2000/svg" xmlns:xlink="http://www.w3.org/1999/xlink" x="0px" y="0px"
	 viewBox="0 0 555.7 539.4" style="enable-background:new 0 0 555.7 539.4;" xml:space="preserve">
<style type="text/css">
	.st0{fill:#FEF8F0;}
</style>
<path class="st0" d="M551.2,142.3c-2.4,53.4-39.6,126.4-111.6,219.2c-74.4,96.9-137.3,145.3-188.8,145.3
	c-31.9,0-58.9-29.5-80.9-88.5c-14.7-54.1-29.4-108.2-44.2-162.3c-16.4-59-33.9-88.5-52.7-88.5c-4.1,0-18.4,8.6-42.9,25.8L4.3,160.1
	c27-23.8,53.6-47.5,79.9-71.4c36-31.2,63.1-47.6,81.1-49.2c42.6-4.1,68.8,25.1,78.6,87.5c10.6,67.4,18,109.3,22.1,125.7
	c12.3,55.9,25.8,83.8,40.5,83.8c11.5,0,28.7-18.1,51.6-54.4c22.9-36.3,35.2-63.8,36.8-82.8c3.3-31.3-9-47-36.8-47
	c-13.1,0-26.6,3-40.5,9c26.9-88.3,78.3-131.1,154.1-128.7C527.9,34.3,554.4,70.9,551.2,142.3z"/>
</svg>
